<?xml version="1.0" encoding="utf-8"?>
<!-- Generator: Adobe Illustrator 25.0.1, SVG Export Plug-In . SVG Version: 6.00 Build 0)  -->
<svg version="1.1" id="_x32_71e5882-3c8d-41ed-8a0a-1cb2b4d0cbc1"
	 xmlns="http://www.w3.org/2000/svg" xmlns:xlink="http://www.w3.org/1999/xlink" x="0px" y="0px" viewBox="0 0 1137.7 859.7"
	 style="enable-background:new 0 0 1137.7 859.7;" xml:space="preserve">
<style type="text/css">
	.st0{fill:#BEBEBE;}
	.st1{fill:#191619;}
	.st2{fill:#E58D2E;}
	.st3{fill:#084E9B;}
	.st4{fill:#FBBD9E;}
	.st5{opacity:0.2;fill:url(#SVGID_1_);}
	.st6{opacity:0.2;fill:url(#SVGID_2_);}
	.st7{opacity:0.2;fill:url(#SVGID_3_);}
	.st8{opacity:0.2;fill:url(#SVGID_4_);}
	.st9{fill:#999999;}
	.st10{fill:#322939;}
	.st11{fill:#F2F2F2;}
	.st12{fill:#513120;}
	.st13{fill:#005FC7;}
	.st14{fill:#2789E1;}
</style>
<g id="_x31_6">
	<g>
		<path class="st0" d="M991.3,859.7c-37,0-74-7.7-102.2-23c-28.5-15.5-44.2-36.4-44.2-58.9c0-22.5,15.7-43.5,44.2-58.9
			c56.4-30.6,148.1-30.6,204.4,0c28.5,15.5,44.2,36.4,44.2,58.9c0,22.5-15.7,43.5-44.2,58.9C1065.3,852.1,1028.3,859.7,991.3,859.7z
			 M991.3,707.4c-34.8,0-69.5,7.2-96,21.6c-24.5,13.3-37.9,30.6-37.9,48.8c0,18.2,13.5,35.5,37.9,48.8c52.9,28.8,139.1,28.8,192,0
			c24.5-13.3,37.9-30.6,37.9-48.8c0-18.2-13.5-35.5-37.9-48.8C1060.8,714.6,1026.1,707.4,991.3,707.4z"/>
	</g>
	<g>
		<path class="st0" d="M933.3,712.1c-0.8,0-1.6-0.1-2.4-0.4c-3.2-1.2-4.7-4.7-3.4-7.6c13.8-31.4,1.8-63.3-10.9-97.1
			c-8.5-22.7-17.3-46.2-17.8-69.7c-0.2-8.2,1.7-19,4-31.5c5.7-32.1,13.4-76.1-9.9-104.9c-18.9-23.2-69-80.2-69.5-80.7
			c-2.2-2.5-1.8-6.2,0.8-8.2c2.6-2.1,6.6-1.7,8.7,0.8c0.5,0.6,50.9,57.7,69.9,81.1c26.6,32.8,18.4,79.7,12.3,113.9
			c-2.1,11.9-3.9,22.2-3.8,29.4c0.4,21.6,8.9,44.2,17.1,66c12.9,34.4,26.3,69.9,10.7,105.4C938,710.8,935.7,712.1,933.3,712.1z"/>
	</g>
	<g>
		<path class="st1" d="M882.9,673.7l-92.4-12.2c-9.1,3-6.6,23.6-3.4,32.1c1.2,3.4,52.4,11.8,62.9,13.9c9.1,1.8,20.7,1.2,29-3.2
			c1.6-0.8,4.8-2.7,4.7-4.8C883.7,699.6,883,676.5,882.9,673.7z"/>
		<path class="st2" d="M869.4,706.5c-7.6,1.4-15.4,1.2-23-0.1c-9.7-1.7-43.6-9.4-53.6-12.7l3.4,9.9c9.1,3.2,56.4,11.7,61.2,11.5
			c19.4,0.3,24.6-4.9,26-7.2c0.4-0.7,0.6-1.5,0.5-2.2l-0.3-6.9C883.7,698.7,883.7,703.8,869.4,706.5z"/>
		<path class="st3" d="M865.4,489.3c2.5-38,2-81.3-3.7-119.6c-22.4,13.7-46,26.5-69.8,38.3c1.4,38.5,4.8,86.2,5.8,104.2
			c1.6,26.3,20.5,129.1,24.9,162.2c2.4,19.9,64.3,12.8,63.9,3.4c-4.9-108.3-7.8-129.2-16.5-159.4C868.1,511.8,865,496.2,865.4,489.3
			z"/>
	</g>
	<g>
		<path class="st1" d="M790.7,800.4c0-1.1,0-2.2,0.1-3.3c0.3-13,0.5-26,0.8-39c-9.4-2.5-19-4.2-28.8-5.2l-31.3,5
			c-10.2,14.8-75.7,6.8-79,29.8c-5.1,20.3,59.6,21.5,69.6,19.7c7.3-1.3,19.2-2.7,24.9-4.2C746.9,803.3,790.7,801.8,790.7,800.4z"/>
		<path class="st2" d="M790.3,796.8c-2.6,2.3-33.5,4.7-40.9,5.4c-36.8,3.1-56.4,2-72,1.4c-6.8-0.3-13.7-2-19.1-6
			c-3.5-2.6-6.1-6-5.4-10.7c-1.6,2.8-1.7,6.2,0.3,10.4c2.8,6.1,8.8,10.6,15.7,12.1c17.9,3.8,62.2,1,72.3,0.2
			c9.9-0.8,45.8-2.9,48.4-5.2c1.1-1,1.2-2.5,1.2-3.9c0-1.5,0.1-3,0.1-4.6C790.6,796.1,790.6,796.5,790.3,796.8z"/>
		<path class="st3" d="M790.8,521.6c6.4-33.7,13.6-67.7,13.6-102L715.1,371c-1.9,9.6-6.7,43.9-7.5,58.7c0,0-7.6,71.9-2.3,112.2
			c5,37.9,11.7,56.9,13.4,81.1c2.4,33.4,2.4,95,2.8,139.1c0.2,23.3,70.4,22.4,71.7,3.3c9.5-135.7,1.2-117.2-5.1-201.7
			C787,548.3,787.9,536.8,790.8,521.6z"/>
	</g>
	<path class="st4" d="M546.6,232.6c-3.8-0.2-10.2-1.4-13.6,1.5c-8.2,6.9-9.5,25.7-0.5,38.3c12.2,4.8,32,12.6,40.4,4.4
		c-1.4-9.1-6.7-32.8-10.7-39.2C559.3,233.1,555,233,546.6,232.6z"/>
	<g>
		<g>
			
				<linearGradient id="SVGID_1_" gradientUnits="userSpaceOnUse" x1="814.2318" y1="731.3227" x2="846.1519" y2="1159.4048" gradientTransform="matrix(2.300000e-02 -0.9997 -0.9997 -2.300000e-02 1123.2144 1102.729)">
				<stop  offset="0" style="stop-color:#9BC6EA"/>
				<stop  offset="0.1547" style="stop-color:#A0C9EB"/>
				<stop  offset="0.3417" style="stop-color:#AFD1EE"/>
				<stop  offset="0.5453" style="stop-color:#C7DFF3"/>
				<stop  offset="0.7592" style="stop-color:#E9F3FA"/>
				<stop  offset="0.8768" style="stop-color:#FFFFFF"/>
			</linearGradient>
			<polygon class="st5" points="11.7,189.2 414.6,238.1 414.5,243.8 2.7,275.7 			"/>
			
				<linearGradient id="SVGID_2_" gradientUnits="userSpaceOnUse" x1="813.6848" y1="731.3683" x2="845.7755" y2="1161.7372" gradientTransform="matrix(2.300000e-02 -0.9997 -0.9997 -2.300000e-02 1123.2144 1102.729)">
				<stop  offset="0" style="stop-color:#9BC6EA"/>
				<stop  offset="0.1547" style="stop-color:#A0C9EB"/>
				<stop  offset="0.3417" style="stop-color:#AFD1EE"/>
				<stop  offset="0.5453" style="stop-color:#C7DFF3"/>
				<stop  offset="0.7592" style="stop-color:#E9F3FA"/>
				<stop  offset="0.8768" style="stop-color:#FFFFFF"/>
			</linearGradient>
			<polygon class="st6" points="14.3,164.1 414.6,238.1 414.5,243.8 0,301.9 			"/>
			
				<linearGradient id="SVGID_3_" gradientUnits="userSpaceOnUse" x1="818.1621" y1="731.1136" x2="849.955" y2="1157.4889" gradientTransform="matrix(2.300000e-02 -0.9997 -0.9997 -2.300000e-02 1123.2144 1102.729)">
				<stop  offset="0" style="stop-color:#9BC6EA"/>
				<stop  offset="0.1547" style="stop-color:#A0C9EB"/>
				<stop  offset="0.3417" style="stop-color:#AFD1EE"/>
				<stop  offset="0.5453" style="stop-color:#C7DFF3"/>
				<stop  offset="0.7592" style="stop-color:#E9F3FA"/>
				<stop  offset="0.8768" style="stop-color:#FFFFFF"/>
			</linearGradient>
			<polygon class="st7" points="9.8,207.2 414.6,239.3 414.5,242.6 4.6,257.3 			"/>
			
				<linearGradient id="SVGID_4_" gradientUnits="userSpaceOnUse" x1="825.5217" y1="730.637" x2="857.2057" y2="1155.5525" gradientTransform="matrix(2.300000e-02 -0.9997 -0.9997 -2.300000e-02 1123.2144 1102.729)">
				<stop  offset="0" style="stop-color:#9BC6EA"/>
				<stop  offset="0.1547" style="stop-color:#A0C9EB"/>
				<stop  offset="0.3417" style="stop-color:#AFD1EE"/>
				<stop  offset="0.5453" style="stop-color:#C7DFF3"/>
				<stop  offset="0.7592" style="stop-color:#E9F3FA"/>
				<stop  offset="0.8768" style="stop-color:#FFFFFF"/>
			</linearGradient>
			<polygon class="st8" points="8.2,222.7 414.6,240.3 414.6,241.6 6.3,241.6 			"/>
		</g>
		<path class="st9" d="M414.3,236.7l88.6,5.1c2.4,0.2,1.9,8.6-0.5,8.4l-88.6-5.1C411.2,244.9,411.9,236.5,414.3,236.7z"/>
		<path class="st10" d="M730.8,267.2c0.8,0.7,12.9,11.2,24.7,21.6c2.6,2.3,6.1,3.6,9.7,3.6h9.7c4.7,0,7-5.4,3.6-8.5
			c-6.5-5.8-13.2-11.4-20.1-17.1c-4.9-4-12.5-11.3-18-14.5c-1.4-1-3-1.8-4.9-1.8l-230.7-13c-3.9-0.2-4.6,16.6-1.4,16.9
			C503.7,254.4,730.8,267.2,730.8,267.2z"/>
	</g>
	<path class="st4" d="M871,134.8c25.2,11.4,22.9,159.4-1.6,161.5c-13.6,1.2-127.5-6.3-128.6-7.8c-3.7-4.6-3.9-22.9,2.5-27.1
		l104.5-9.2c0,0-12.8-89.2-12.5-102.4C835.4,143.8,846,123.5,871,134.8z"/>
	<path class="st11" d="M710.7,396.7c-7.6,42.8,161,36.7,153.4-12c-1.7-23.4-9.2-49-7.5-77.1c5.7-89.8,64.1-179.8-8.1-179.3
		c0.5,0-0.7-0.1-3.1,0c-9.8,0.2-19.5,1.7-28.9,4.1l-49.7,13.1c-18,4.7-35.3,11.6-51.2,20.7c-17,9.8-17.9,13.4-21.1,25.3
		C691.2,203.8,729.1,268.8,710.7,396.7z"/>
	<path class="st4" d="M676.4,224.6c-11.3,30.6-23,65.3-23,65.3L563.3,267l-30.8,5.4c4.8,6.9,17,20.5,23.8,23
		c21.2,7.3,84.9,29,112.9,37.2c7.8,2.3,16.2-0.8,20.2-7.5c11-18.2,31.7-55.4,41.3-89.6C712.5,232.2,694.4,228.6,676.4,224.6z"/>
	<path class="st11" d="M718,297.6c17.4-33.4,24.3-81.1,15.7-109.3c-9.3-30.7-34.1-13.1-38.1-8.3c-5.7,6.8-34.1,52.6-44.7,82.9
		C640.8,276.9,708.1,310.4,718,297.6z"/>
	<path class="st11" d="M897.9,242.4c-2.4-37.1-6.3-88.9-23.8-107.6c-20.8-16.8-50,6.3-51,12.2c-1.4,8.5-2,61.6,4.7,92.8
		C826.4,256.8,895.9,258.1,897.9,242.4z"/>
	<path class="st4" d="M698,92.7c7.7-7.9,6.8-13.2,8.2-20.5c1.5-8.3,5.7-15.9,8.6-23.8c2.6-7.3,2-14.8,9.5-19.6
		c3.6-2.3,8.1-3.1,12.4-3.9c2.2-0.4,4.4-0.8,6.7-1.2c3.7-0.6,7.4-1.3,11.1-1.3c6.3,0,12.5,1.8,18.6,3.6c11.1,3.3,23.1,7.2,29.7,16.3
		c2.5,3.4,4,7.4,5.5,11.3c3,8.2,5.9,16.7,4.8,25.4c-1.3,10.7-8.5,20.1-9.8,30.8c-1.2,9.2,2.3,18.7,9.2,25.3
		c-0.4,5.3-3.1,10-10.4,13.7c-11.1,6.8-27.3,6.1-40.6,6.7c-1.6,0.1-3.2,0.1-4.7-0.3c-7.2-2.1-7.3-13.3-14.5-15.5
		c-1.6-0.5-3.3-0.4-5-0.3c-5.4,0.3-10.8,0.9-16.1,0c-5.3-0.9-10.5-3.6-13-8.1c-1.7-3.2-1.9-6.9-2.2-10.4c-0.4-4.8-1-9.6-2-14.4
		c-0.2-1-0.4-2-1-2.9c-1.9-2.8-7.2-3.5-7.3-6.8C695.6,95.2,696.8,93.9,698,92.7z"/>
	<path class="st12" d="M758.3,99.5c26.2,2,3.4,43.5,43.5,25.7c4.6-2,4.8-3.2,5.3-7.1c2.2-15.6,25.3-38.2,8-73.5
		c-11.6-23.7-47.6-32.8-72-27c-9.1,2.2-21.5,6-26.2,14.3c-2.5,4.4-3.3,13.1-2.8,15.7c0.6,2.7,4.7,9,11.4,13.4
		c6.1,4,7.3,4.3,8.2,13.8c0.8,7.9,2.8,15.7,5.9,23.1C743.4,106.1,746.5,98.6,758.3,99.5z"/>
	<path class="st4" d="M538.5,269.5c-1.8-6-4.2-10.7-8.9-17.5c-6-8.7,7.2-13.7,13.9-0.3c1.3,2.5,5.2,7.7,8.1,10.1
		c5.1,4.2,4.2,8.8-0.3,14.2c-1.7,2-4.8,2.7-7.3,1.7C540.8,276.4,539.5,272.8,538.5,269.5z"/>
	<g>
		<path class="st13" d="M772.1,79.9c-15.7,0-63.7-7.8-65.8-28c0,0,8.4-65,80.6-49.5c46.5,12.4,35.3,61.9,35.3,61.9
			C820.5,72,803.6,79.9,772.1,79.9z"/>
		<path class="st14" d="M708.6,42.2c0,0-29.5,2.2-30.6,6.2c-1.4,5.1,0.5,12.6,1.9,17.2c1.5,4.9,19.9,7.6,31.4,9.6
			c8.7,1.5,33.6,1.8,45.7,3.4C746.6,76.1,707.2,58.5,708.6,42.2z"/>
		<path class="st14" d="M763.1,7.5c-0.2,1.9,3.1,3.7,7.4,4.1c4.3,0.4,7.9-0.8,8.1-2.7c0.2-1.9-3.1-3.7-7.4-4.1
			C767,4.4,763.3,5.6,763.1,7.5z"/>
	</g>
</g>
</svg>
