<?xml version="1.0" encoding="utf-8"?>
<!-- Generator: Adobe Illustrator 25.0.1, SVG Export Plug-In . SVG Version: 6.00 Build 0)  -->
<svg version="1.1" id="a02f2390-8fa7-48a9-96f1-2ec5f63ecbc1"
	 xmlns="http://www.w3.org/2000/svg" xmlns:xlink="http://www.w3.org/1999/xlink" x="0px" y="0px" viewBox="0 0 1150 627.5"
	 style="enable-background:new 0 0 1150 627.5;" xml:space="preserve">
<style type="text/css">
	.st0{fill:#F2F2F2;}
	.st1{fill:#6C63FF;}
	.st2{fill:#FF6584;}
	.st3{fill:#CCCCCC;}
	.st4{fill:#3F3D56;}
	.st5{fill:#FFFFFF;}
</style>
<path class="st0" d="M1047.8,626.3H584.6c-12.6,0-22.8-13.3-22.8-29.5V194.1c-0.1-6.3,2.8-12.1,7.5-15l175-123.9
	c19.4-11.3,42.3-11.3,61.7-0.1L1063,179.1c4.8,2.9,7.7,8.7,7.6,15v402.6C1070.6,613,1060.4,626.3,1047.8,626.3z"/>
<path class="st1" d="M979.4,625.8H581.7c-10.9,0-19.7-9.4-19.7-20.9V323.6c0.1-4.8,2.7-9,6.6-10.7l185.2-86.6c17-7.9,36-7.9,53,0
	l185.8,86.6c3.9,1.6,6.5,5.9,6.6,10.7V605C999.1,616.5,990.2,625.8,979.4,625.8z"/>
<ellipse class="st2" cx="344.5" cy="262.2" rx="58.3" ry="68.1"/>
<ellipse class="st0" cx="368.8" cy="402.2" rx="73.8" ry="108"/>
<polygon class="st3" points="369,380.5 369.2,380.5 372.9,625.1 365.2,625.1 "/>
<path class="st3" d="M381.6,542.4L381.6,542.4c0.5,1,0.1,2.3-0.8,2.9l-10.6,6.5l-1.7-3.8l10.6-6.5C380,541,381.1,541.4,381.6,542.4z
	"/>
<ellipse class="st0" cx="156.6" cy="402.2" rx="73.8" ry="108"/>
<path class="st3" d="M169.4,546.5L169.4,546.5c-0.5-1-1.6-1.4-2.5-0.9l-7.4,4.5L157,380.5h-0.2L153,625.1h7.7l-1-70.2l9-5.6
	C169.5,548.8,169.9,547.5,169.4,546.5z"/>
<path class="st1" d="M262.5,153.3c51.7,0,93.6,113.8,93.6,189.3s-41.9,136.8-93.5,136.8s-93.5-61.3-93.5-136.8
	S210.8,153.3,262.5,153.3z"/>
<path class="st4" d="M278.8,525.5c-0.6-1.3-2-1.8-3.1-1.1c0,0,0,0,0,0l-9.4,5.8l-3.2-215h-0.3l-4.9,310h9.8l-1.3-88.9l11.4-7
	C278.9,528.4,279.4,526.8,278.8,525.5C278.8,525.5,278.8,525.5,278.8,525.5z"/>
<path class="st5" d="M687.7,432.4v-29.1c0-7.9-5.5-14.3-12.2-14.3h-62.8c-6.8,0-12.2,6.4-12.2,14.3v29.1H687.7z"/>
<path class="st5" d="M600.3,437v45.1c0,7.9,5.5,14.3,12.2,14.3h62.8c6.8,0,12.2-6.4,12.2-14.3V437H600.3z"/>
<path class="st4" d="M984,352.6l-188.6-80.8c-11.5-4.9-24.1-4.9-35.5,0l-188.6,80.8c-13.6,5.8-28.8-2.3-33.8-18.3
	c-1.1-3.4-1.6-7-1.6-10.6l0,0c0-12.9,6.9-24.4,17.3-28.9l206.8-88.6c11.5-4.9,24.1-4.9,35.5,0l206.8,88.6
	c10.4,4.4,17.3,16,17.3,28.9l0,0c0,17-11.8,30.8-26.3,30.8C989.9,354.4,986.9,353.8,984,352.6z"/>
<path class="st4" d="M808,627.2h-50.4c-11.1,0-20.2-10.6-20.2-23.6V460.9c0-13,9-23.6,20.2-23.6H808c11.1,0,20.2,10.6,20.2,23.6
	v142.7C828.2,616.6,819.2,627.2,808,627.2z M757.6,441.3c-9.2,0-16.7,8.8-16.7,19.5v142.7c0,10.8,7.5,19.5,16.7,19.5H808
	c9.2,0,16.7-8.8,16.7-19.5V460.9c0-10.8-7.5-19.5-16.7-19.5H757.6z"/>
<path class="st5" d="M812.9,133.7c-1.8-23.5-19.5-40.8-39.6-38.7c-17.6,1.8-31.5,18.1-33.1,38.7H812.9z"/>
<path class="st5" d="M740.1,138.3c0.4,23.5,17,42.3,37.1,41.9c19.6-0.4,35.5-18.9,35.8-41.9H740.1z"/>
<path class="st3" d="M807.2,185.4h-61.3c-6.1,0-11-5.8-11-12.9c0-7.1,4.9-12.9,11-12.9h61.3c6.1,0,11,5.8,11,12.9
	C818.2,179.7,813.3,185.4,807.2,185.4z"/>
<path class="st3" d="M601,481.9c-5.4,0-9.8,5.2-9.8,11.5c0,6.4,4.4,11.5,9.8,11.5h86c5.4,0,9.8-5.2,9.8-11.5
	c0-6.4-4.4-11.5-9.8-11.5l0,0H601z"/>
<path class="st5" d="M868.2,437v45.1c0,7.9,5.5,14.3,12.2,14.3h62.8c6.8,0,12.2-6.4,12.2-14.3V437H868.2z"/>
<path class="st5" d="M955.5,432.4v-29.1c0-7.9-5.5-14.3-12.2-14.3h-62.8c-6.8,0-12.2,6.4-12.2,14.3v29.1H955.5z"/>
<ellipse class="st4" cx="812.8" cy="528.4" rx="7.2" ry="8.4"/>
<polygon class="st4" points="572,533.8 543.8,482.5 545.1,481.5 571.9,530.2 593.7,481.6 595.1,482.4 "/>
<path class="st4" d="M595,465.6h-67.2v-1.4c0-9.3-6.4-16.8-14.4-16.8h0l0,0c-7.9,0-14.4,7.5-14.4,16.8c0,0,0,0,0,0v1.4h-6.6
	c-7.9,0-14.4,7.5-14.4,16.8c0,9.3,6.4,16.8,14.3,16.8c0,0,0,0,0,0h6.6v126.9c28.6-0.7-0.2,0.7,28.7,0V499.2H595
	c7.9,0,14.4-7.5,14.3-16.8C609.3,473.2,602.9,465.7,595,465.6z"/>
<ellipse class="st5" cx="513.1" cy="482" rx="5.4" ry="6.4"/>
<path class="st3" d="M603.5,566.2h-62.1c-6.1,0-11.1-5.8-11.1-12.9v-23.6c0-7.1,5-12.9,11.1-12.9h62.1c6.1,0,11.1,5.8,11.1,12.9
	v23.6C614.6,560.4,609.6,566.2,603.5,566.2z"/>
<path class="st1" d="M552.3,535.5h39.6c2.4,0,4.3,2.2,4.3,5l0,0c0,2.8-1.9,5-4.3,5h-39.6c-2.4,0-4.3-2.2-4.3-5l0,0
	C548,537.8,549.9,535.5,552.3,535.5z"/>
<path class="st3" d="M1149.1,627.5H0.9c-0.5,0-0.9-0.5-0.9-1s0.4-1,0.9-1h1148.2c0.5,0,0.9,0.5,0.9,1S1149.6,627.5,1149.1,627.5z"/>
<path class="st3" d="M954.2,506.2h-86c-6.1,0-11-5.8-11-12.9c0-7.1,4.9-12.9,11-12.9h86c6.1,0,11,5.8,11,12.9
	C965.2,500.5,960.3,506.2,954.2,506.2z"/>
<path class="st3" d="M1069.7,207.6c0,0-20.9-1.7-63.4-4C955.6,99.7,790.7,74.7,790.7,0v0h202.7c42.2,0,76.5,40,76.5,89.4
	L1069.7,207.6z"/>
<path class="st0" d="M893.9,27.3c-1,0-1.7,0.9-1.7,2v67.5c0,1.1,0.8,2,1.7,2h36c1,0,1.7-0.9,1.7-2V29.3c0-1.1-0.8-2-1.7-2H893.9z"/>
<path class="st3" d="M993.9,202.1L805.2,69.2c-11.5-4.9-24.1-4.9-35.5,0L581.1,202.1c-13.6,5.8-28.8-2.3-33.8-18.3
	c-1.1-3.4-1.6-7-1.6-10.6l0,0c0-12.9,6.9-24.4,17.3-28.9L769.7,3.7c11.5-4.9,24.1-4.9,35.5,0L1012,144.4c10.4,4.4,17.3,16,17.3,28.9
	l0,0c0,17-11.8,30.8-26.3,30.8C999.8,204,996.8,203.4,993.9,202.1z"/>
</svg>
