<?xml version="1.0" encoding="utf-8"?>
<!-- Generator: Adobe Illustrator 25.0.1, SVG Export Plug-In . SVG Version: 6.00 Build 0)  -->
<svg version="1.1" id="Capa_1" xmlns="http://www.w3.org/2000/svg" xmlns:xlink="http://www.w3.org/1999/xlink" x="0px" y="0px"
	 viewBox="0 0 1136.6 643.2" style="enable-background:new 0 0 1136.6 643.2;" xml:space="preserve">
<style type="text/css">
	.st0{fill:none;}
	.st1{fill:#BEBEBE;}
	.st2{fill:#FCBE9F;}
	.st3{fill:#191619;}
	.st4{fill:#E58D2E;}
	.st5{fill:#084E9B;}
	.st6{fill:#F2F2F2;}
	.st7{fill:#F3A984;}
	.st8{fill:#4F321F;}
	.st9{fill:#322939;}
	.st10{fill:#005FC7;}
	.st11{fill:#2789E1;}
	.st12{fill:#999999;}
	.st13{opacity:0.2;fill:url(#SVGID_1_);}
	.st14{opacity:0.2;fill:url(#SVGID_2_);}
	.st15{opacity:0.2;fill:url(#SVGID_3_);}
	.st16{opacity:0.2;fill:url(#SVGID_4_);}
	.st17{fill:#5E5E5E;}
	.st18{fill:url(#SVGID_5_);}
	.st19{fill:#353433;}
	.st20{fill:#232221;}
	.st21{enable-background:new    ;}
	.st22{fill:#DDDCDB;}
	.st23{fill:#D4D4D4;}
	.st24{fill:#CCCCCC;}
	.st25{fill:#EBEAE9;}
	.st26{fill:#298BE3;}
	.st27{fill:#3F3F44;}
	.st28{fill:#2A2A2F;}
</style>
<rect id="backgroundrect" class="st0" width="1136.6" height="643.2"/>
<g id="_x31_3">
	<g>
		<path class="st1" d="M380.6,641.2c-27,0-54.1-5.6-74.6-16.7c-20.9-11.3-32.3-26.6-32.3-43.1c0-16.5,11.5-31.8,32.3-43.1
			c41.2-22.3,108.1-22.3,149.3,0c20.9,11.3,32.3,26.6,32.3,43.1c0,16.5-11.5,31.8-32.3,43.1C434.7,635.6,407.6,641.2,380.6,641.2z
			 M380.6,530.6c-25.3,0-50.5,5.2-69.8,15.6c-17.7,9.6-27.5,22.1-27.5,35.2c0,13.1,9.8,25.6,27.5,35.2c38.5,20.9,101.1,20.9,139.5,0
			c17.7-9.6,27.5-22.1,27.5-35.2c0-13.1-9.8-25.6-27.5-35.2C431.1,535.8,405.9,530.6,380.6,530.6z"/>
	</g>
	<path class="st2" d="M586,252c0.2,1.4,0.6,2.9,1.3,4.2c0.3,0.6,0.5,1.1,0.7,1.6c3.3-0.8,6.9-1,10.4-0.4c9.1,1.6,16.4,2.4,25.5,3.2
		c0,0-11.1-13-5.7-13c2.8,0,5.5,0.1,8.3,0.2c10.7,0.3,9.6-5.8,5.6-5.7c-4.1,0.1-7.8-0.6-11.9-0.9c-5.8-0.5-9.6-4.3-15-5.6
		c-0.5-0.1-1.1-0.2-1.7-0.2c-6.9-16-33-69.3-33-69.3c0.9-16.2,3.7-38.1,4.3-52.1c0.1-3-4.1-4-5.6-1.4
		c-10.6,18.4-33.3,58.7-30.1,62.7c0.2,5.2,32,51.9,43.7,68.3C584.6,246,585.5,249,586,252z"/>
	<g>
		<g>
			<g>
				<path class="st3" d="M630.1,528.1c-3.2-5-15.4-9.2-27.2-13.6c-12-4.5-28.9-11.2-29.6-12.8c-0.6-1.3-0.3-3-1.4-4.1
					c-0.6-0.6-1.6-0.8-2.5-1c-8.5-1.5-17.4-0.3-25.1,3.2c-3.6,1.6-7.8,8.5-7.8,8.5c0.4,4.2-0.3,18.2,0.7,19.9c0,0,18,6.8,18.8,7.1
					c1.7,0.6,2.3-1.4,3.8-1.5c13.2,6.4,30.1,11.7,37.8,12.7c8.9,1.1,28.7,4.3,33.4-5.3C632.9,537.1,632.6,532,630.1,528.1z"/>
				<g>
					<path class="st4" d="M630.9,536.8c-4.7,9.6-24.5,6.5-33.4,5.3c-7.7-1-61.1-21.1-61.1-21.1c-0.5,5.2,0.2,7,0.8,8.1
						c0,0,18,6.8,18.8,7.1c1.7,0.6,2.3-1.4,3.8-1.5c13.2,6.4,30.1,11.7,37.8,12.7c8.9,1.1,29.3,4.3,34-5.3c1.2-2.5,1.5-5.6,0.5-8.7
						C631.8,534.4,631.4,535.8,630.9,536.8z"/>
				</g>
			</g>
			<g>
				<path class="st3" d="M393.6,601.7c11.8,9.1,29.1,6.8,35.2,1.6c8.6-7.4-6.3-28.7-8-54.2c-0.1-1.5,0.8-13.8,0.1-14.2
					c-9.6-5.2-33.8-13.7-40.3-6c-2.4,2.8-1.6,13.4-1.7,16.8C378.1,567.6,376.9,588.8,393.6,601.7z"/>
				<path class="st4" d="M430.2,597.3c-6,5.2-23.4,7.5-35.2-1.6c-16.7-12.9-15.5-34.1-14.7-55.9c0.1-1.8-0.1-5.6,0.1-9.2
					c-2.1,3.2-1.4,13.2-1.6,16.5c-0.8,21.8-2,43,14.7,55.9c11.8,9.1,29.1,6.8,35.2,1.6c2.3-1.9,3.1-5.2,2.8-8.9
					C431.2,596.2,430.6,596.9,430.2,597.3z"/>
			</g>
			<path class="st5" d="M422.5,306.2c-2.7,26.6-6,52.7-7.8,74.6c-0.3,4.3-0.7,8.6-1.8,12.8c-1.1,4.3-3,8.4-4.8,12.6
				c-13.6,32.3-24.5,91.7-30,125.8c-1.9,12,40.5,18.7,44.4,4.7c1.3-4.6,20.5-82,30.6-102.7c5.3-10.9,13.3-20.7,18.3-31.8
				c3.6-7.9,5.6-16.3,7.9-24.6c6.5-24.2,14.7-48,24.6-71.1c3.2-7.6,6.7-15.4,7.2-23.6l-77.4-25.6
				C429.7,266.4,423.7,289.2,422.5,306.2z"/>
			<path class="st5" d="M500,374.1c0.9,4.9,1.4,23.1,6.1,43c8.7,37,23.7,84,25.1,92.2c2,11.6,48.2,4.4,45.8-8.3
				c0,0-16.4-132.2-16.6-134.2c-0.4-4.9-0.8-9.9-0.9-14.8c0-6.5-0.6-14.9-1-21.5c-2-27.9-3.2-53.3-6-75.9
				c-21.8,0.9-65.8,35.6-67,48.3c-0.6,5.9,2.3,11.3,3.6,17.1C493,338.2,496.8,355.7,500,374.1z"/>
		</g>
		<path class="st6" d="M489,77c-13.4,3.9-27.4,7-40.3,12.1c-13.2,5.2-23.7,15.8-26.3,29.1c-2.7,13.8-0.8,33.4,9.6,60.4
			c3.6,9.4,6.9,25.4,7.5,35.4c0.6,9.2,0.5,15.2-1.5,25.8c-1,5.3-3.3,14-5.7,18.8c-12.7,25,41.2,36.2,68.8,32.5
			c25.6-3.4,53.5-10.2,52.7-34.5c-0.8-25.9-2.9-52.2,3.4-77.5c3.4-13.5,9.1-26.4,11.7-40c1.5-8.1,1.9-16.4,2.3-24.6l0.8-18.2
			c0.7-15.3-12.1-28.5-28.4-29.3C525.4,66,506.2,72,489,77z"/>
		<path class="st6" d="M541.6,66.8c-30.5,0,19,54.5,19,54.5l-0.4,7.9c0,0,19.9-1.1,19.4-9.8C578.5,98.1,572.1,66.8,541.6,66.8z"/>
		<g>
			<path class="st2" d="M523.1,68.3c-14.8,5.3-29.8,7.7-54.1,16c-3,1-4.3,4.5-2.6,7c10.8,16,29,33.5,48.5,26.5l0.5-0.2
				c14-5,21.7-19.4,17.2-32.8C530.4,77.7,526.7,74.2,523.1,68.3z"/>
			<path class="st7" d="M498.2,52.6l-21.4,34.3c0,0-0.2,5,6.5,13.3c10.3,12.8,20.9,14.1,27.6,13.3c4.4-0.5,8-3.5,9.4-7.4l1.3-3.9
				L498.2,52.6z"/>
			<path class="st2" d="M509.5,9.2c-15.9,5.8-27.7,16.5-23.9,45.1c2.9,22,22.7,44.3,40.3,56.3c4.4,3,17.7,6.1,22-3.4
				c3.6-8.1,12.3-31.7,12.5-52.2c0.2-16.5-0.5-30.7-13.9-40.8C537.1,7.2,526.2,3.1,509.5,9.2z"/>
			<path class="st8" d="M513,65.1c3.8-21.1,31.9-6.5,47.1-20.8c2.8-8.7-1.3-22.3-13.8-32.1c-9.1-7.1-21.5-11.6-38.2-5.5
				c-15.9,5.8-28.5,17.6-24,47.5c0.3,2.2,3.9,19.5,8.2,19.5c2.7-0.6,0.7-9.8,1.1-12.3c0.7-4.3,5.7-6.5,9-3.2
				c1.5,1.5,2.5,3.3,2.9,5.4c0.3,1.9-0.5,4,0.6,5.7C507.9,72.1,511.8,71.7,513,65.1z"/>
		</g>
	</g>
	<g>
		<path class="st1" d="M305.9,623.5c-0.8,0-1.6-0.2-2.4-0.6c-15.8-8.4-26.9-22.3-30.4-38.4c-3.4-15.6,0.4-31.3,10.9-44.2
			c4.4-5.5,9.3-10.1,14.2-13.6c5.6-3.9,11.4-7,17-10c3.8-2.1,7.7-4.1,11.5-6.4c5-3,10.6-8.1,9.5-15.2c-1.1-7.3-9.3-14.5-20-17.4
			c-7.1-2-25.5-4.7-41.8,12.7c-1.8,1.9-4.8,2.1-6.9,0.4c-2-1.7-2.2-4.6-0.4-6.5c13.9-14.8,33.3-20.6,51.9-15.5
			c14.4,4,25.1,14,26.8,24.9c0.8,5.3,0.1,15.6-13.9,24.1c-4,2.4-8,4.6-12,6.7c-5.6,3-10.9,5.9-16,9.4c-4.2,2.9-8.4,7-12.3,11.8
			c-8.7,10.8-11.9,23.9-9.1,36.8c3,13.5,12.3,25.2,25.7,32.3c2.3,1.2,3.2,4,1.9,6.2C309.2,622.7,307.6,623.5,305.9,623.5z"/>
	</g>
	<g>
		<path class="st1" d="M464.8,617.5c-1.4,0-2.9-0.6-3.8-1.8c-1.7-2-1.3-4.9,0.8-6.4c34-25,29.3-84.8,26.8-117
			c-0.5-6-0.9-10.8-0.9-14.3c-0.2-19.2-4.1-38.9-7.9-57.9c-6-30.5-12.3-62.1-3.8-92.9c4.5-16.5,13.5-31.7,26.1-43.9
			c1.9-1.8,4.9-1.9,6.9-0.1c1.9,1.8,2,4.7,0.1,6.5c-11.4,11.1-19.6,24.9-23.7,39.8c-7.9,28.9-2.1,58.1,4,89
			c3.8,19.4,7.8,39.5,8,59.5c0,3.3,0.4,8.1,0.9,13.8c2.7,33.9,7.7,96.9-30.5,124.9C466.9,617.1,465.9,617.5,464.8,617.5z"/>
	</g>
	<path class="st9" d="M546.6,247.9c-4.4,1.4-12.1,7.5-16.7,10.6c-8.7,5.9-16.9,11.4-25.1,18c-2.6,2.1-7.3,5.8-10.8,9.5
		c-1.6,1.8-1.4,4.5,0.5,6c4.2,3.2,8.6,6.1,13.3,8.7c4.2,2.4,9.1,3.5,13.9,2.9c4.7-0.6,9.3-1.6,13.3-3.1
		c16.2-5.9,40.6-28.9,52.3-40.8C588.3,258.7,551.7,246.3,546.6,247.9z M541.7,286.4c-5.5,3.3-12.4,7.7-18.9,8.6
		c-4.2,0.5-11.6-3.9-11.6-4.4c0.1-1.8,40-29.9,40-29.9s21.2,0.7,20.9,1.3C572.1,261.9,549.7,281.6,541.7,286.4z"/>
	<g>
		<path class="st2" d="M543.5,266.1c-14.8,10.6-28.1,3.2-25.9-0.8c0.3-0.6,1.2-1.2,1.9-1.5c4.3-2.1,6.1-7.9,3.6-11.8
			c-0.2-0.4-0.5-0.8-0.9-1c-0.8-0.4-1.7-0.1-2.4,0.4c-1.2,1-1.5,2.2-2.3,3.4c-0.9,1.3-2.6,2.1-4.1,2.6c-4.2,1.6-8.8,2.2-13.3,1.7
			c-47.5-18.5-64.8-31.6-64.8-31.6c8.2-23,24.2-61.7,18.6-70.1c-2.1-3.1-11-5.5-15.5-5.7l-30.8,2.2c0.4,3.3-3.7,27.5-5.9,52.3
			c-2,22.4-2.7,32.4,0.3,37c7.6,11.5,70,28.2,90.1,37.5c3.5,1.5,12.9,7.5,22.9,12.5c3.3,1.7,12,0.1,16.8-2.5
			c5.4-2.9,10.3-8,11.4-9.8c0.5-0.8,0.7-1.6,1.1-2.5c0.7-1.4,1.7-2.6,2.4-4C548.2,271.4,545.9,264.4,543.5,266.1z"/>
		<path class="st6" d="M403.6,164.1c-1.4,13.6,61.7,18.5,62.5,2.8c0.3-5.3,3.5-59.1-8.6-71.9c0,0-2.1-7.9-2.6-7.8
			c-14,3.4-33,16.9-40.5,32.2C409.4,129.5,405.7,143.7,403.6,164.1z"/>
	</g>
	<g>
		<path class="st10" d="M516.9,59.7c10.7,1.7,43.2-5.4,46.1-19.2c0,0-1.1-45.4-52.1-39.3c-33,5.5-28.9,40.4-28.9,40.4
			C482.6,47,507.7,58.2,516.9,59.7z"/>
		<path class="st11" d="M580.3,54.6c-7.8,0.9-16.8,4.3-26.6,10c-7.9,4.6-17.6,5.1-26.2,1.7c-6.4-2.6-14.2-6.1-22.3-10.2
			c11.9,2.4,58.9-4.3,57.6-17.5C562.8,38.6,587.7,53.8,580.3,54.6z"/>
		<path class="st11" d="M526.9,6.2c0,1.3-2.4,2.4-5.4,2.4c-3,0-5.4-1.1-5.4-2.4s2.4-2.4,5.4-2.4C524.5,3.8,526.9,4.9,526.9,6.2z"/>
	</g>
	<path class="st9" d="M727.8,253.9l-179-6.3c-3.9-0.3-7.1,2.7-7.2,6.3c-0.1,3.6,2.9,6.6,6.7,6.8l179,6.3
		C730,266.9,730.8,254,727.8,253.9z"/>
	<path class="st2" d="M598.3,272.2c4,1.6,15.1,1.5,17.2,1.3c3.6-0.4,9.3-1.8,8.8-10.3l-4.3-0.3c-1.6-3.9-3.9-8.6-5-9.3
		c-1.6-1.1-3.6-1-5.3-0.2c-1,0.5-1.8,1.2-3,1.4c-1.7,0.2-3.6-1.1-5.3-1.2c-1.9-0.2-3.8,0.3-5.3,1.4c-0.5,0.4-0.7,0.4-1.4-0.1
		c-2.5-1.9-5.6-1-5.9,2c-0.2,2.1,0.5,4.4,1.3,6.4C591.5,266.9,594.2,270.6,598.3,272.2z"/>
	<path class="st12" d="M797.6,259.6l-68.7-2.4c-1.9,0-2.2,6.5-0.3,6.5l68.7,2.4C799.3,266.2,799.5,259.7,797.6,259.6z"/>
	<g>
		
			<linearGradient id="SVGID_1_" gradientUnits="userSpaceOnUse" x1="714.716" y1="774.5067" x2="739.4361" y2="1106.0284" gradientTransform="matrix(7.440000e-02 -0.9972 0.9972 7.440000e-02 -27.0895 940.3552)">
			<stop  offset="0" style="stop-color:#9BC6EA"/>
			<stop  offset="0.1547" style="stop-color:#A0C9EB"/>
			<stop  offset="0.3417" style="stop-color:#AFD1EE"/>
			<stop  offset="0.5453" style="stop-color:#C7DFF3"/>
			<stop  offset="0.7592" style="stop-color:#E9F3FA"/>
			<stop  offset="0.8768" style="stop-color:#FFFFFF"/>
		</linearGradient>
		<polygon class="st13" points="1112.7,251.7 798.1,260.8 797.7,265.2 1112.7,318.9 		"/>
		
			<linearGradient id="SVGID_2_" gradientUnits="userSpaceOnUse" x1="714.2935" y1="774.5417" x2="739.1359" y2="1107.7041" gradientTransform="matrix(7.440000e-02 -0.9972 0.9972 7.440000e-02 -27.0895 940.3552)">
			<stop  offset="0" style="stop-color:#9BC6EA"/>
			<stop  offset="0.1547" style="stop-color:#A0C9EB"/>
			<stop  offset="0.3417" style="stop-color:#AFD1EE"/>
			<stop  offset="0.5453" style="stop-color:#C7DFF3"/>
			<stop  offset="0.7592" style="stop-color:#E9F3FA"/>
			<stop  offset="0.8768" style="stop-color:#FFFFFF"/>
		</linearGradient>
		<polygon class="st14" points="1112.7,232.2 798.1,260.8 797.7,265.2 1112.7,339.2 		"/>
		
			<linearGradient id="SVGID_3_" gradientUnits="userSpaceOnUse" x1="716.8634" y1="774.4178" x2="741.4913" y2="1104.7024" gradientTransform="matrix(7.440000e-02 -0.9972 0.9972 7.440000e-02 -27.0895 940.3552)">
			<stop  offset="0" style="stop-color:#9BC6EA"/>
			<stop  offset="0.1547" style="stop-color:#A0C9EB"/>
			<stop  offset="0.3417" style="stop-color:#AFD1EE"/>
			<stop  offset="0.5453" style="stop-color:#C7DFF3"/>
			<stop  offset="0.7592" style="stop-color:#E9F3FA"/>
			<stop  offset="0.8768" style="stop-color:#FFFFFF"/>
		</linearGradient>
		<polygon class="st15" points="1112.7,265.7 798,261.7 797.8,264.3 1112.7,304.5 		"/>
		
			<linearGradient id="SVGID_4_" gradientUnits="userSpaceOnUse" x1="722.5451" y1="774.0546" x2="747.094" y2="1103.2808" gradientTransform="matrix(7.440000e-02 -0.9972 0.9972 7.440000e-02 -27.0895 940.3552)">
			<stop  offset="0" style="stop-color:#9BC6EA"/>
			<stop  offset="0.1547" style="stop-color:#A0C9EB"/>
			<stop  offset="0.3417" style="stop-color:#AFD1EE"/>
			<stop  offset="0.5453" style="stop-color:#C7DFF3"/>
			<stop  offset="0.7592" style="stop-color:#E9F3FA"/>
			<stop  offset="0.8768" style="stop-color:#FFFFFF"/>
		</linearGradient>
		<polygon class="st16" points="1112.7,277.7 797.9,262.5 797.8,263.5 1112.7,292.4 		"/>
	</g>
	<ellipse class="st17" cx="797.7" cy="262.9" rx="0.7" ry="2.4"/>
	<g>
		<g>
			<linearGradient id="SVGID_5_" gradientUnits="userSpaceOnUse" x1="212.4757" y1="396.2587" x2="217.5938" y2="405.1234">
				<stop  offset="4.926110e-03" style="stop-color:#298BE3"/>
				<stop  offset="0.3978" style="stop-color:#1C7DDA"/>
				<stop  offset="0.7931" style="stop-color:#0A6ACE"/>
			</linearGradient>
			<path class="st18" d="M247.7,305.8l-43.9,10l-65.5,44.9l59,180l94.4-51.5l0.1-121.2c0-4.6-1.6-9.1-4.5-12.8L247.7,305.8z"/>
			<path class="st19" d="M181.5,485.5c-2.8-6-6.7-11.7-11.2-16.5c-3.8-4.1-8.1-7.5-12.6-10c-8-4.4-15.3-4.8-20.6-1.9l-15.9,8.7
				l41,66.1l15.9-8.7c5.2-2.8,8.4-8.9,8.4-17.4C186.5,499.3,184.6,492.2,181.5,485.5z"/>
			<g>
				<path class="st5" d="M117.3,337.7l-0.2,131.8l25.7,41.7l54.4,29.5l0.1-121.2c0-4.6-1.6-9.1-4.5-12.8L153.2,357L117.3,337.7z"/>
			</g>
			<path class="st20" d="M141.7,467.7c-16-8.7-29-1.7-29,15.5c-0.1,17.2,12.9,38.2,28.8,46.9s29,1.7,29-15.5
				C170.6,497.3,157.7,476.3,141.7,467.7z"/>
			<g>
				<g>
					<path class="st1" d="M142.1,473.8c-12.3-7-22.5-1.8-22.8,11.5C119,498.6,128.7,515,141,522c12.3,7,22.5,1.8,22.8-11.5
						C164.1,497.2,154.4,480.8,142.1,473.8z"/>
				</g>
			</g>
			<g>
				<g class="st21">
					<g>
						<polygon class="st5" points="154.2,358.3 117.3,338.2 117.3,327.6 154.2,347.5 						"/>
					</g>
					<polygon class="st10" points="154.2,347.5 154.2,358.3 248.8,307 248.9,296.2 					"/>
				</g>
			</g>
			<path class="st22" d="M213.4,437.8l60.9-33.1c3.5-1.9,7.8,0.5,7.8,4.2l-0.1,69.7c0,3.9-2.2,7.6-5.9,9.5l-59.8,32.6
				c-3.5,1.9-7.8-0.5-7.8-4.2l-0.1-70.5C208.4,442.6,210.3,439.5,213.4,437.8z"/>
			<g>
				<path class="st22" d="M228.1,470.1l12.5-20.5c1.6-2.5,3.8-4.6,6-5.8l17.9-9.7c2.2-1.2,4.4-1.5,6-0.6l12.6,6.8
					c1.6,0.8,2.5,2.6,2.5,5.1l0.1,19.2c0,2.5-0.9,5.2-2.5,7.8l-12.5,20.5c-1.6,2.5-3.8,4.6-6,5.8l-17.9,9.7c-2.2,1.2-4.4,1.5-6,0.6
					l-12.6-6.8c-1.7-0.8-2.5-2.6-2.5-5.1l-0.1-19.2C225.6,475.4,226.4,472.7,228.1,470.1z"/>
				<path class="st23" d="M231.1,440.3c-0.8,0.8-1.5,1.8-2.2,2.8l-12.5,20.5l11.7,6.6l12.5-20.5c0.6-1,1.4-2,2.2-2.8L231.1,440.3z"
					/>
				<path class="st1" d="M225.7,497.1l-0.1-19.2c0-1.5,0.3-3.1,0.9-4.7l-11.6-6.9c-0.7,1.7-1.1,3.4-1.1,5l0.1,19.2
					c0,2.4,0.8,4.1,2.3,5L228,502C226.5,501.2,225.7,499.5,225.7,497.1z"/>
				<path class="st6" d="M258.6,427c-1.6-0.8-3.6-0.6-5.8,0.6l-17.9,9.7c-1.3,0.7-2.6,1.7-3.8,3l11.7,6.6c1.2-1.3,2.5-2.3,3.8-3
					l17.8-9.6c2.2-1.2,4.4-1.5,6-0.6l0.9,0.3L258.6,427z"/>
				<path class="st24" d="M215.3,465.6c0.3-0.7,0.7-1.3,1.1-2l11.7,6.6c-0.4,0.7-0.8,1.3-1.1,2c-0.9,2-1.4,3.9-1.4,5.8l-11.7-6.6
					C213.9,469.5,214.4,467.5,215.3,465.6z"/>
				<path class="st25" d="M228.9,443.1l11.7,6.6c0.6-1,1.4-2,2.2-2.8c1.2-1.3,2.5-2.3,3.8-3l-11.7-6.6c-1.3,0.7-2.6,1.7-3.8,3
					C230.3,441.1,229.6,442.1,228.9,443.1z"/>
				<path class="st1" d="M253.2,449l-12.8,6.9l1.8-3c0.3-0.5,0.7-0.8,1-1.3l9.9-5.4V449z M257.7,451.6l17.3-9.4l-2.5-1.4l-14.8,8
					V451.6z M253.2,461.5l-23.5,12.7c-0.3,1-0.5,2-0.5,3l24-13V461.5z M253.2,451.3l-14.9,8.1l-2.5,4l17.4-9.4V451.3z M253.2,456.4
					L233.6,467l-2.4,3.9c-0.1,0.1,21.9-11.8,21.9-11.8V456.4z M257.7,446.5l12.6-6.8l-1.8-1c-0.3-0.2-0.7-0.1-1-0.2l-9.8,5.3V446.5z
					 M257.7,456.7l21.9-11.9c-0.1-0.1-2.5-1.4-2.5-1.4L257.7,454V456.7z M257.7,471.9l24.1-13.1l0-2.7l-24.1,13.1V471.9z
					 M257.7,476.9l24.1-13.1l0-2.7l-24.1,13.1V476.9z M257.7,461.7l24-13c-0.1-0.9-0.2-1.7-0.6-2.4L257.7,459V461.7z M257.7,466.8
					l24.1-13.1l0-2.7l-24.1,13.1V466.8z M253.2,497l-12.9,7l2.1,1.2c0.2,0.1,0.4,0,0.6,0.1l10.2-5.5V497z M253.2,466.6l-24.1,13.1
					l0,2.7l24.1-13.1V466.6z M257.7,492.1l15.2-8.2l2.5-4l-17.7,9.6V492.1z M257.7,487.1l19.9-10.8l2.1-3.4c0.1-0.2,0.2-0.4,0.3-0.6
					l-22.2,12V487.1z M257.7,482l23.6-12.8c0.3-1,0.5-2,0.5-3l-24.1,13.1V482z M257.7,497.2l10.4-5.6c0.2-0.2,0.4-0.4,0.6-0.7
					l2.1-3.5l-13,7.1V497.2z M253.2,471.6l-24.1,13.1l0,2.7l24.1-13.1V471.6z M253.2,476.7l-24.1,13.1l0,2.7l24.1-13.1V476.7z
					 M253.2,486.8l-22.1,12c0.1,0.1,0.1,0.2,0.3,0.3l2.1,1.1l19.8-10.7V486.8z M253.2,491.9l-17.6,9.5l2.5,1.4l15.1-8.2V491.9z
					 M253.2,481.8l-24,13c0,0.9,0.2,1.7,0.5,2.4l23.6-12.8V481.8z"/>
			</g>
			<polygon class="st26" points="248.8,296.2 154.2,347.5 117.3,327.6 211.9,276.3 			"/>
			<g>
				<g>
					<g class="st21">
						<g>
							<polygon class="st1" points="178.3,330 149.1,313.9 149.1,308.8 178.3,325 							"/>
						</g>
						<path class="st6" d="M189.1,284.8c-0.6-0.3-1.3-0.3-2.2,0.2l-34.7,18.8l29.2,16.1l34.7-18.8c0.9-0.5,1.6-0.5,2.2-0.2
							L189.1,284.8z"/>
						<path class="st22" d="M219.2,302.8c0-1.8-1.4-2.6-3.1-1.7L181.4,320c-1.7,0.9-3.1,3.2-3.1,5v5l40.9-22.2L219.2,302.8z"/>
						<g>
							<g class="st21">
								<path class="st23" d="M178.3,325l-29.2-16.1c0-1.9,1.4-4.1,3.1-5l29.2,16.1C179.7,320.9,178.3,323.1,178.3,325L178.3,325z"
									/>
							</g>
						</g>
					</g>
				</g>
				<g>
					<g id="Axonometric_Cylinder_27_">
						<path id="Cylinder_face_94_" class="st27" d="M190.3,297.8c-4.2,2.3-11.1,2.3-15.3,0c-4.2-2.3-4.2-6,0-8.3
							c4.2-2.3,11.1-2.3,15.3,0C194.5,291.8,194.5,295.5,190.3,297.8z"/>
						<path id="Cylinder_body_105_" class="st28" d="M193.5,293.6v9.5c0,1.5-1,3-3.2,4.2c-4.2,2.3-11.1,2.3-15.3,0
							c-2.1-1.1-3.1-2.6-3.2-4.1v-9.5c0,1.5,1.1,3,3.2,4.1c4.2,2.3,11.1,2.3,15.3,0C192.5,296.7,193.5,295.1,193.5,293.6z"/>
					</g>
					<g>
						<path class="st1" d="M196.1,290.5c0,0.7-1.5,1.1-1.5,2.6l0,3.4c-0.2,0.1-0.4,0.1-0.6,0.1c-2.4,0.3-4.4,1.2-5,2.5
							c-0.2,0.4-0.7,0.7-1.3,0.8c-2,0.4-2.3-0.7-5.6-0.7c-3,0-3.4,1-5.2,0.5c-0.3-0.1-0.5-0.2-0.7-0.2c-0.9-0.5-0.4-1.3-2.4-2.4
							c-0.8-0.4-1.8-0.7-2.9-0.9c-0.2,0-0.2-3.8-0.2-3.8c0-0.6-0.3-1.2-0.9-1.8c-0.2-0.2-0.3-0.4-0.3-0.6l0,4.2
							c0,0.2,0.1,0.4,0.3,0.6c0.4,0.4,0.7,0.8,0.8,1.3c-0.3-0.1-0.5-0.1-0.7-0.2c-0.4-0.2-0.7-0.5-0.7-0.9l0,4.2
							c0,0.3,0.2,0.6,0.7,0.9c0.3,0.1,0.6,0.3,1,0.3c1.1,0.2,2,0.5,2.9,0.9c2,1.1,1.4,1.9,2.4,2.4c0.2,0.1,0.4,0.2,0.7,0.2
							c1.8,0.4,2.2-0.5,5.2-0.5c3.3,0,3.7,1.1,5.6,0.7c0.7-0.1,1.2-0.4,1.3-0.8c0.6-1.3,2.5-2.3,5-2.5c0.7-0.1,1.3-0.3,1.6-0.7
							c0.1-0.2,0.2-0.3,0.2-0.5l0-4.2c0,0.1-0.1,0.3-0.2,0.5c-0.2,0.2-0.5,0.4-0.8,0.5c0.4-0.8,1.3-1.2,1.3-1.7L196.1,290.5z"/>
						<path class="st6" d="M195.9,290.1c-0.1-0.2-0.3-0.3-0.5-0.4c-0.8-0.4-2.2-0.3-3.9-1.2c-2-1.1-1.4-1.9-2.4-2.4
							c-0.2-0.1-0.4-0.2-0.7-0.2c-1.8-0.4-2.2,0.5-5.2,0.5c-3.3,0-3.7-1.1-5.6-0.7c-1.8,0.4-0.9,1.2-3,2.4c-2.3,1.3-4,0.6-4.9,1.6
							c-0.3,0.3-0.3,0.8,0.1,1.1c1.2,1.1,1.2,2.6-0.2,3.7c-0.6,0.5-0.4,1.1,0.3,1.5c0.3,0.1,0.6,0.3,1,0.3c1.1,0.2,2,0.5,2.9,0.9
							c2,1.1,1.4,1.9,2.4,2.4c0.2,0.1,0.4,0.2,0.7,0.2c1.8,0.4,2.2-0.5,5.2-0.5c3.3,0,3.7,1.1,5.6,0.7c0.7-0.1,1.2-0.4,1.3-0.8
							c0.6-1.3,2.5-2.3,5-2.5c0.7-0.1,1.3-0.3,1.6-0.7c0.8-1-1-1.2-1-2.8C194.6,291.3,196.6,291.1,195.9,290.1z"/>
					</g>
				</g>
			</g>
		</g>
		<g>
			<polygon class="st22" points="214,152.7 221.9,148.3 232.9,287.6 225,291.9 			"/>
			<polygon class="st6" points="204.4,147.4 212.3,143.1 221.9,148.3 214,152.7 			"/>
			<polygon class="st1" points="214,152.7 204.4,147.4 204,280.5 225,291.9 			"/>
		</g>
		<g id="Axonometric_Cube_13_">
			<polygon id="Cube_face_-_right_67_" class="st22" points="215,164.5 133.9,208.4 132.9,196.6 216.4,151.4 			"/>
			<polygon id="Cube_face_-_top_70_" class="st6" points="132.9,196.6 123.2,191.4 206.2,146.5 214,152.7 			"/>
		</g>
		<g>
			<polygon class="st22" points="127.2,199.7 135.1,195.4 146.2,334.6 138.2,338.9 			"/>
			<polygon class="st6" points="117.6,194.5 125.5,190.1 135.1,195.4 127.2,199.7 			"/>
			<polygon class="st1" points="127.2,199.7 138.2,338.9 138.3,383 117.2,371.6 117.3,327.5 117.6,194.5 			"/>
		</g>
	</g>
</g>
</svg>
